REM DIRINDEX 1\2,1\3,1\4,1\5
REM DIRNAME folder01,folder02,folder03,folder04,folder05
TITLE ""
FILE "P1Q_j_1817-1830.mp3" MP3
  TRACK 01 AUDIO
    TITLE "3:cjc005_0800"
    INDEX 01 00:00:00
  TRACK 02 AUDIO
    TITLE "0:"
    INDEX 01 00:01:13
  TRACK 03 AUDIO
    TITLE "4:cjc005_0801"
    INDEX 01 00:01:44
  TRACK 04 AUDIO
    TITLE "0:"
    INDEX 01 00:02:55
  TRACK 05 AUDIO
    TITLE "5:cjc005_0802"
    INDEX 01 00:03:06
  TRACK 06 AUDIO
    TITLE "0:"
    INDEX 01 00:08:03
  TRACK 07 AUDIO
    TITLE "3:cjc005_0803"
    INDEX 01 00:08:54
  TRACK 08 AUDIO
    TITLE "0:"
    INDEX 01 00:09:51
  TRACK 09 AUDIO
    TITLE "4:cjc005_0804"
    INDEX 01 00:10:08
  TRACK 10 AUDIO
    TITLE "0:"
    INDEX 01 00:12:01
  TRACK 11 AUDIO
    TITLE "5:cjc005_0805"
    INDEX 01 00:12:26
  TRACK 12 AUDIO
    TITLE "0:"
    INDEX 01 00:14:72
  TRACK 13 AUDIO
    TITLE "3:cjc005_0806"
    INDEX 01 00:15:50
  TRACK 14 AUDIO
    TITLE "0:"
    INDEX 01 00:16:69
  TRACK 15 AUDIO
    TITLE "4:cjc005_0807"
    INDEX 01 00:17:29
  TRACK 16 AUDIO
    TITLE "0:"
    INDEX 01 00:18:42
  TRACK 17 AUDIO
    TITLE "5:cjc005_0808"
    INDEX 01 00:18:64
  TRACK 18 AUDIO
    TITLE "0:"
    INDEX 01 00:22:58
  TRACK 19 AUDIO
    TITLE "3:cjc005_0809"
    INDEX 01 00:23:46
  TRACK 20 AUDIO
    TITLE "0:"
    INDEX 01 00:24:51
  TRACK 21 AUDIO
    TITLE "4:cjc005_0810"
    INDEX 01 00:25:13
  TRACK 22 AUDIO
    TITLE "0:"
    INDEX 01 00:28:57
  TRACK 23 AUDIO
    TITLE "5:cjc005_0811"
    INDEX 01 00:29:15
  TRACK 24 AUDIO
    TITLE "0:"
    INDEX 01 00:31:73
  TRACK 25 AUDIO
    TITLE "3:cjc005_0812"
    INDEX 01 00:32:48
  TRACK 26 AUDIO
    TITLE "0:"
    INDEX 01 00:34:00
  TRACK 27 AUDIO
    TITLE "4:cjc005_0813"
    INDEX 01 00:34:36
  TRACK 28 AUDIO
    TITLE "0:"
    INDEX 01 00:35:57
  TRACK 29 AUDIO
    TITLE "5:cjc005_0814"
    INDEX 01 00:36:03
  TRACK 30 AUDIO
    TITLE "0:"
    INDEX 01 00:39:33
  TRACK 31 AUDIO
    TITLE "3:cjc005_0815"
    INDEX 01 00:40:17
  TRACK 32 AUDIO
    TITLE "0:"
    INDEX 01 00:41:30
  TRACK 33 AUDIO
    TITLE "4:cjc005_0816"
    INDEX 01 00:41:65
  TRACK 34 AUDIO
    TITLE "0:"
    INDEX 01 00:43:21
  TRACK 35 AUDIO
    TITLE "5:cjc005_0817"
    INDEX 01 00:43:54
  TRACK 36 AUDIO
    TITLE "0:"
    INDEX 01 00:47:36
  TRACK 37 AUDIO
    TITLE "3:cjc005_0818"
    INDEX 01 00:48:22
  TRACK 38 AUDIO
    TITLE "0:"
    INDEX 01 00:49:31
  TRACK 39 AUDIO
    TITLE "4:cjc005_0819"
    INDEX 01 00:49:69
  TRACK 40 AUDIO
    TITLE "0:"
    INDEX 01 00:50:72
  TRACK 41 AUDIO
    TITLE "5:cjc005_0820"
    INDEX 01 00:51:18
  TRACK 42 AUDIO
    TITLE "0:"
    INDEX 01 00:54:46
  TRACK 43 AUDIO
    TITLE "3:cjc005_0821"
    INDEX 01 00:55:28
  TRACK 44 AUDIO
    TITLE "0:"
    INDEX 01 00:56:45
  TRACK 45 AUDIO
    TITLE "4:cjc005_0822"
    INDEX 01 00:56:72
  TRACK 46 AUDIO
    TITLE "0:"
    INDEX 01 00:58:30
  TRACK 47 AUDIO
    TITLE "5:cjc005_0823"
    INDEX 01 00:58:54
  TRACK 48 AUDIO
    TITLE "0:"
    INDEX 01 01:02:16
  TRACK 49 AUDIO
    TITLE "3:cjc005_0824"
    INDEX 01 01:03:02
  TRACK 50 AUDIO
    TITLE "0:"
    INDEX 01 01:04:58
  TRACK 51 AUDIO
    TITLE "4:cjc005_0825"
    INDEX 01 01:05:17
  TRACK 52 AUDIO
    TITLE "0:"
    INDEX 01 01:06:22
  TRACK 53 AUDIO
    TITLE "5:cjc005_0826"
    INDEX 01 01:06:49
  TRACK 54 AUDIO
    TITLE "0:"
    INDEX 01 01:10:24
  TRACK 55 AUDIO
    TITLE "3:cjc005_0827"
    INDEX 01 01:11:00
  TRACK 56 AUDIO
    TITLE "0:"
    INDEX 01 01:12:19
  TRACK 57 AUDIO
    TITLE "4:cjc005_0828"
    INDEX 01 01:12:48
  TRACK 58 AUDIO
    TITLE "0:"
    INDEX 01 01:13:51
  TRACK 59 AUDIO
    TITLE "5:cjc005_0829"
    INDEX 01 01:14:04
  TRACK 60 AUDIO
    TITLE "0:"
    INDEX 01 01:16:48
  TRACK 61 AUDIO
    TITLE "3:cjc005_0830"
    INDEX 01 01:17:26
  TRACK 62 AUDIO
    TITLE "0:"
    INDEX 01 01:18:43
  TRACK 63 AUDIO
    TITLE "4:cjc005_0831"
    INDEX 01 01:18:68
  TRACK 64 AUDIO
    TITLE "0:"
    INDEX 01 01:20:12
  TRACK 65 AUDIO
    TITLE "5:cjc005_0832"
    INDEX 01 01:20:42
  TRACK 66 AUDIO
    TITLE "0:"
    INDEX 01 01:24:36
  TRACK 67 AUDIO
    TITLE "3:cjc005_0833"
    INDEX 01 01:25:19
  TRACK 68 AUDIO
    TITLE "0:"
    INDEX 01 01:26:27
  TRACK 69 AUDIO
    TITLE "4:cjc005_0834"
    INDEX 01 01:26:68
  TRACK 70 AUDIO
    TITLE "0:"
    INDEX 01 01:28:25
  TRACK 71 AUDIO
    TITLE "5:cjc005_0835"
    INDEX 01 01:28:55
  TRACK 72 AUDIO
    TITLE "0:"
    INDEX 01 01:32:13
  TRACK 73 AUDIO
    TITLE "3:cjc005_0836"
    INDEX 01 01:32:74
  TRACK 74 AUDIO
    TITLE "0:"
    INDEX 01 01:34:28
  TRACK 75 AUDIO
    TITLE "4:cjc005_0837"
    INDEX 01 01:34:57
  TRACK 76 AUDIO
    TITLE "0:"
    INDEX 01 01:36:47
  TRACK 77 AUDIO
    TITLE "5:cjc005_0838"
    INDEX 01 01:36:72
  TRACK 78 AUDIO
    TITLE "0:"
    INDEX 01 01:41:28
  TRACK 79 AUDIO
    TITLE "3:cjc005_0839"
    INDEX 01 01:42:10
  TRACK 80 AUDIO
    TITLE "0:"
    INDEX 01 01:43:33
  TRACK 81 AUDIO
    TITLE "4:cjc005_0840"
    INDEX 01 01:43:66
  TRACK 82 AUDIO
    TITLE "0:"
    INDEX 01 01:44:70
  TRACK 83 AUDIO
    TITLE "5:cjc005_0841"
    INDEX 01 01:45:14
  TRACK 84 AUDIO
    TITLE "0:"
    INDEX 01 01:48:36
